<svg width="223" height="19" viewBox="0 0 223 19" fill="none" xmlns="http://www.w3.org/2000/svg">
  <path d="M76.8456 18H74.0663L76.0249 13.5793L72.1078 4.77515H74.9057L77.1766 10.2659C77.2607 10.4692 77.5488 10.4688 77.6324 10.2653L79.886 4.77515H82.7026L76.8456 18Z" fill="#0C0A09"/>
  <path d="M68.4038 14.1015V7.01346H66.5199V4.77512H68.4038V3.56269C68.4038 2.45596 68.7396 1.58549 69.4111 0.951294C70.0826 0.317098 70.9344 0 71.9665 0C72.6007 0 73.1417 0.0683936 73.5893 0.205181V2.46217C73.2909 2.35026 72.9427 2.2943 72.5448 2.2943C71.9852 2.2943 71.581 2.41865 71.3323 2.66735C71.0836 2.90362 70.9593 3.30777 70.9593 3.87979V4.77512H73.5893V7.01346H70.9593V14.1015H68.4038Z" fill="#0C0A09"/>
  <path d="M64.2339 3.24559C63.7986 3.24559 63.4194 3.09015 63.0961 2.77927C62.7727 2.45596 62.6111 2.07046 62.6111 1.6228C62.6111 1.17513 62.7727 0.795854 63.0961 0.484974C63.4194 0.161658 63.7986 0 64.2339 0C64.694 0 65.0795 0.161658 65.3904 0.484974C65.7137 0.795854 65.8753 1.17513 65.8753 1.6228C65.8753 2.07046 65.7137 2.45596 65.3904 2.77927C65.0795 3.09015 64.694 3.24559 64.2339 3.24559ZM62.9655 14.1015V4.77512H65.5209V14.1015H62.9655Z" fill="#0C0A09"/>
  <path d="M58.5157 14.1014V0.111816H61.0712V14.1014H58.5157Z" fill="#0C0A09"/>
  <path d="M55.629 14.2134C54.5844 14.2134 53.7264 13.9274 53.0549 13.3554C52.3958 12.771 52.0663 11.9316 52.0663 10.8373V7.01346H50.1824V4.77512H52.0663V2.18237H54.6217V4.77512H57.2518V7.01346H54.6217V10.3337C54.6217 10.9057 54.7461 11.316 54.9948 11.5647C55.2435 11.801 55.6476 11.9191 56.2072 11.9191C56.6052 11.9191 56.9533 11.8632 57.2518 11.7513V14.0083C56.8041 14.1451 56.2632 14.2134 55.629 14.2134Z" fill="#0C0A09"/>
  <path d="M40.6178 14.1017V4.77525H43.1732V5.43633C43.1732 5.55783 43.3391 5.61183 43.4202 5.52139C43.9892 4.88718 44.796 4.57007 45.8406 4.57007C46.9598 4.57007 47.8364 4.94313 48.4706 5.68924C49.1173 6.42292 49.4406 7.4053 49.4406 8.63638V14.1017H46.8851V9.0654C46.8851 8.38146 46.7421 7.85297 46.4561 7.47991C46.1701 7.09442 45.766 6.90167 45.2437 6.90167C44.6219 6.90167 44.1183 7.12551 43.7328 7.57317C43.3598 8.02084 43.1732 8.67991 43.1732 9.55037V14.1017H40.6178Z" fill="#0C0A09"/>
  <path d="M37.4364 3.24559C37.0012 3.24559 36.6219 3.09015 36.2986 2.77927C35.9753 2.45596 35.8136 2.07046 35.8136 1.6228C35.8136 1.17513 35.9753 0.795854 36.2986 0.484974C36.6219 0.161658 37.0012 0 37.4364 0C37.8965 0 38.282 0.161658 38.5929 0.484974C38.9162 0.795854 39.0778 1.17513 39.0778 1.6228C39.0778 2.07046 38.9162 2.45596 38.5929 2.77927C38.282 3.09015 37.8965 3.24559 37.4364 3.24559ZM36.168 14.1015V4.77512H38.7234V14.1015H36.168Z" fill="#0C0A09"/>
  <path d="M31.8298 14.1017V9.12136C31.8298 7.64157 31.3448 6.90167 30.3749 6.90167C29.8153 6.90167 29.3676 7.11307 29.0318 7.53587C28.7085 7.95867 28.5344 8.58664 28.5096 9.4198V14.1017H25.9541V9.12136C25.9541 7.64157 25.4692 6.90167 24.4992 6.90167C23.9272 6.90167 23.4733 7.12551 23.1376 7.57317C22.8018 8.02084 22.6339 8.67991 22.6339 9.55037V14.1017H20.0785V4.77525H22.6339V5.4434C22.6339 5.56427 22.7969 5.61771 22.8768 5.52708C23.4398 4.88907 24.1858 4.57007 25.1148 4.57007C26.3411 4.57007 27.2658 5.07469 27.8888 6.08392C27.9409 6.16825 28.0684 6.16687 28.1203 6.08241C28.3892 5.64448 28.7614 5.29581 29.237 5.03639C29.7842 4.72551 30.3375 4.57007 30.8971 4.57007C32.0039 4.57007 32.8619 4.93691 33.4712 5.67059C34.0805 6.40426 34.3852 7.41152 34.3852 8.69234V14.1017H31.8298Z" fill="#0C0A09"/>
  <path d="M16.305 6.13856V1.08616C16.305 0.543984 15.8652 0.111816 15.3311 0.111816H10.281C9.48777 0.111816 8.70238 0.268962 7.97197 0.567549C7.24155 0.873994 6.57397 1.31402 6.01634 1.87977L5.97707 1.91906C5.2388 2.66552 4.71259 3.59271 4.44556 4.61419C4.92465 4.48847 5.41942 4.42561 5.91422 4.41775C7.23368 4.40204 8.5296 4.82635 9.58203 5.61996C10.5324 6.32715 11.2549 7.30148 11.6476 8.42511C12.056 9.56446 12.1031 10.806 11.7968 11.9767C12.81 11.7096 13.7446 11.1831 14.4907 10.4445L14.53 10.4052C15.0876 9.84733 15.5353 9.17944 15.8416 8.44869C16.1479 7.71793 16.2971 6.93218 16.2971 6.13856H16.305Z" fill="#18E299"/>
  <path d="M4.29481 6.05311C4.30264 4.50318 4.92076 3.01587 6.00834 1.9043L1.80665 6.1079C1.791 6.12356 1.77534 6.13139 1.7597 6.14704C0.734705 7.16468 0.116597 8.52675 0.0148805 9.96709C-0.0790116 11.3135 0.273076 12.6442 1.02421 13.7558C1.09586 13.8618 1.29026 13.8967 1.39981 13.795L3.97401 11.2274C4.77992 10.4211 5.0303 9.22343 4.64691 8.151C4.40436 7.48562 4.28699 6.77328 4.29481 6.05311Z" fill="#0C8C5E"/>
  <path d="M14.5055 10.4058C13.6996 11.1964 12.6902 11.7443 11.5948 11.987C10.4916 12.2297 9.34925 12.1592 8.28514 11.7835C8.28514 11.7835 8.2773 11.7835 8.26948 11.7835C7.19754 11.3999 6.00043 11.6504 5.19453 12.4489L2.62028 15.0164C2.51074 15.126 2.52639 15.3061 2.65941 15.3922C3.77046 16.1358 5.10063 16.4959 6.44642 16.402C7.8861 16.3002 9.2397 15.6818 10.2647 14.6563L10.3038 14.6172L14.5055 10.4136V10.4058Z" fill="#0C8C5E"/>
  <path d="M89.7453 10.9022L89.7325 8.56907H90.0649L93.9768 4.41424H96.2651L91.8035 9.14435H91.5031L89.7453 10.9022ZM87.9874 14.2324V1.14151H89.8987V14.2324H87.9874ZM94.1877 14.2324L90.6721 9.56623L91.9889 8.23029L96.5336 14.2324H94.1877ZM99.5582 8.40288V14.2324H97.647V4.41424H99.4815V6.01225H99.6029C99.8288 5.49236 100.182 5.07475 100.664 4.75941C101.15 4.44407 101.761 4.2864 102.499 4.2864C103.168 4.2864 103.754 4.42702 104.256 4.70827C104.759 4.98526 105.149 5.39861 105.426 5.94833C105.703 6.49805 105.842 7.17773 105.842 7.98739V14.2324H103.93V8.21751C103.93 7.50586 103.745 6.94975 103.374 6.54918C103.004 6.14435 102.494 5.94194 101.847 5.94194C101.403 5.94194 101.009 6.03782 100.664 6.22958C100.323 6.42134 100.053 6.70259 99.8522 7.07333C99.6562 7.43981 99.5582 7.88299 99.5582 8.40288ZM112.18 14.4306C111.26 14.4306 110.457 14.2196 109.771 13.7978C109.085 13.3759 108.552 12.7857 108.173 12.0272C107.793 11.2686 107.604 10.3823 107.604 9.36807C107.604 8.34961 107.793 7.45898 108.173 6.6962C108.552 5.93342 109.085 5.34109 109.771 4.91921C110.457 4.49734 111.26 4.2864 112.18 4.2864C113.101 4.2864 113.904 4.49734 114.59 4.91921C115.276 5.34109 115.809 5.93342 116.188 6.6962C116.568 7.45898 116.757 8.34961 116.757 9.36807C116.757 10.3823 116.568 11.2686 116.188 12.0272C115.809 12.7857 115.276 13.3759 114.59 13.7978C113.904 14.2196 113.101 14.4306 112.18 14.4306ZM112.187 12.8262C112.783 12.8262 113.278 12.6685 113.67 12.3532C114.062 12.0378 114.352 11.6181 114.539 11.0939C114.731 10.5698 114.827 9.99236 114.827 9.36168C114.827 8.73526 114.731 8.15998 114.539 7.63583C114.352 7.10742 114.062 6.68342 113.67 6.36381C113.278 6.04421 112.783 5.88441 112.187 5.88441C111.586 5.88441 111.087 6.04421 110.691 6.36381C110.299 6.68342 110.007 7.10742 109.815 7.63583C109.628 8.15998 109.534 8.73526 109.534 9.36168C109.534 9.99236 109.628 10.5698 109.815 11.0939C110.007 11.6181 110.299 12.0378 110.691 12.3532C111.087 12.6685 111.586 12.8262 112.187 12.8262ZM120.36 14.2324L117.471 4.41424H119.446L121.37 11.6245H121.466L123.396 4.41424H125.372L127.289 11.5925H127.385L129.296 4.41424H131.271L128.389 14.2324H126.439L124.445 7.14364H124.298L122.303 14.2324H120.36ZM134.636 1.14151V14.2324H132.725V1.14151H134.636ZM141.079 14.4306C140.112 14.4306 139.279 14.2239 138.58 13.8105C137.885 13.3929 137.348 12.807 136.969 12.0527C136.594 11.2942 136.407 10.4057 136.407 9.38725C136.407 8.38157 136.594 7.49521 136.969 6.72816C137.348 5.96111 137.877 5.36239 138.554 4.932C139.236 4.5016 140.033 4.2864 140.945 4.2864C141.499 4.2864 142.036 4.37802 142.556 4.56126C143.076 4.7445 143.542 5.03214 143.956 5.42418C144.369 5.81623 144.695 6.32546 144.934 6.95188C145.172 7.57404 145.291 8.33043 145.291 9.22106V9.89862H137.487V8.4668H143.419C143.419 7.96396 143.316 7.51864 143.112 7.13086C142.907 6.73881 142.62 6.42986 142.249 6.20401C141.882 5.97816 141.452 5.86523 140.958 5.86523C140.421 5.86523 139.952 5.99734 139.551 6.26154C139.155 6.52148 138.848 6.86239 138.631 7.28427C138.418 7.70188 138.311 8.15572 138.311 8.64577V9.76438C138.311 10.4206 138.426 10.9789 138.657 11.4391C138.891 11.8993 139.217 12.2509 139.635 12.4938C140.052 12.7324 140.54 12.8517 141.098 12.8517C141.461 12.8517 141.791 12.8006 142.089 12.6983C142.387 12.5918 142.645 12.4341 142.863 12.2253C143.08 12.0165 143.246 11.7587 143.361 11.4519L145.17 11.7779C145.025 12.3105 144.765 12.7772 144.39 13.1777C144.019 13.574 143.553 13.883 142.99 14.1046C142.432 14.3219 141.795 14.4306 141.079 14.4306ZM150.727 14.4242C149.935 14.4242 149.227 14.2218 148.605 13.8169C147.987 13.4078 147.502 12.8262 147.148 12.0719C146.798 11.3134 146.624 10.4036 146.624 9.34251C146.624 8.28143 146.801 7.37376 147.154 6.6195C147.512 5.86523 148.002 5.28782 148.624 4.88725C149.247 4.48668 149.952 4.2864 150.74 4.2864C151.35 4.2864 151.84 4.38867 152.21 4.59322C152.585 4.7935 152.875 5.02788 153.08 5.29634C153.289 5.56481 153.45 5.80131 153.566 6.00586H153.681V1.14151H155.592V14.2324H153.725V12.7047H153.566C153.45 12.9135 153.284 13.1522 153.067 13.4206C152.854 13.6891 152.56 13.9235 152.185 14.1238C151.81 14.324 151.324 14.4242 150.727 14.4242ZM151.149 12.7942C151.699 12.7942 152.164 12.6493 152.543 12.3596C152.926 12.0655 153.216 11.6586 153.412 11.1387C153.612 10.6188 153.713 10.0137 153.713 9.32333C153.713 8.64151 153.615 8.04492 153.419 7.53356C153.223 7.02219 152.935 6.62376 152.556 6.33825C152.176 6.05273 151.708 5.90998 151.149 5.90998C150.574 5.90998 150.095 6.05913 149.711 6.35742C149.328 6.65572 149.038 7.06268 148.842 7.5783C148.65 8.09393 148.554 8.6756 148.554 9.32333C148.554 9.97958 148.652 10.5698 148.848 11.0939C149.044 11.6181 149.334 12.0336 149.718 12.3404C150.105 12.6429 150.583 12.7942 151.149 12.7942ZM162.076 18.1188C161.296 18.1188 160.625 18.0165 160.063 17.812C159.504 17.6074 159.048 17.3368 158.695 17.0002C158.341 16.6635 158.077 16.2949 157.902 15.8944L159.545 15.2168C159.66 15.4043 159.813 15.6025 160.005 15.8113C160.201 16.0243 160.465 16.2054 160.798 16.3546C161.134 16.5037 161.567 16.5783 162.095 16.5783C162.82 16.5783 163.418 16.4015 163.891 16.0478C164.364 15.6983 164.601 15.1401 164.601 14.373V12.4426H164.48C164.364 12.6515 164.198 12.8837 163.981 13.1394C163.768 13.3951 163.474 13.6167 163.099 13.8042C162.724 13.9917 162.236 14.0854 161.635 14.0854C160.859 14.0854 160.161 13.9043 159.538 13.5421C158.921 13.1756 158.431 12.6365 158.068 11.9249C157.71 11.209 157.531 10.329 157.531 9.28498C157.531 8.24094 157.708 7.34606 158.062 6.60032C158.42 5.85458 158.91 5.28356 159.532 4.88725C160.154 4.48668 160.859 4.2864 161.648 4.2864C162.257 4.2864 162.749 4.38867 163.124 4.59322C163.499 4.7935 163.791 5.02788 164 5.29634C164.213 5.56481 164.377 5.80131 164.492 6.00586H164.633V4.41424H166.506V14.4498C166.506 15.2935 166.31 15.986 165.918 16.5272C165.526 17.0684 164.995 17.4689 164.326 17.7289C163.661 17.9888 162.911 18.1188 162.076 18.1188ZM162.057 12.5002C162.607 12.5002 163.071 12.3723 163.45 12.1167C163.834 11.8567 164.124 11.486 164.32 11.0044C164.52 10.5186 164.62 9.93697 164.62 9.25941C164.62 8.5989 164.522 8.01722 164.326 7.51438C164.13 7.01154 163.842 6.6195 163.463 6.33825C163.084 6.05273 162.615 5.90998 162.057 5.90998C161.482 5.90998 161.002 6.05913 160.619 6.35742C160.235 6.65146 159.945 7.05202 159.749 7.55913C159.558 8.06623 159.462 8.63299 159.462 9.25941C159.462 9.90288 159.56 10.4675 159.756 10.9533C159.952 11.4391 160.242 11.8184 160.625 12.0911C161.013 12.3638 161.49 12.5002 162.057 12.5002ZM172.941 14.4306C171.973 14.4306 171.14 14.2239 170.441 13.8105C169.747 13.3929 169.21 12.807 168.83 12.0527C168.455 11.2942 168.268 10.4057 168.268 9.38725C168.268 8.38157 168.455 7.49521 168.83 6.72816C169.21 5.96111 169.738 5.36239 170.416 4.932C171.097 4.5016 171.894 4.2864 172.806 4.2864C173.36 4.2864 173.897 4.37802 174.417 4.56126C174.937 4.7445 175.404 5.03214 175.817 5.42418C176.23 5.81623 176.556 6.32546 176.795 6.95188C177.034 7.57404 177.153 8.33043 177.153 9.22106V9.89862H169.348V8.4668H175.28C175.28 7.96396 175.178 7.51864 174.973 7.13086C174.769 6.73881 174.481 6.42986 174.11 6.20401C173.744 5.97816 173.313 5.86523 172.819 5.86523C172.282 5.86523 171.813 5.99734 171.413 6.26154C171.017 6.52148 170.71 6.86239 170.492 7.28427C170.279 7.70188 170.173 8.15572 170.173 8.64577V9.76438C170.173 10.4206 170.288 10.9789 170.518 11.4391C170.752 11.8993 171.078 12.2509 171.496 12.4938C171.914 12.7324 172.401 12.8517 172.96 12.8517C173.322 12.8517 173.652 12.8006 173.95 12.6983C174.249 12.5918 174.507 12.4341 174.724 12.2253C174.941 12.0165 175.107 11.7587 175.222 11.4519L177.031 11.7779C176.887 12.3105 176.627 12.7772 176.252 13.1777C175.881 13.574 175.414 13.883 174.852 14.1046C174.294 14.3219 173.656 14.4306 172.941 14.4306ZM183.471 14.2324V1.14151H185.382V6.00586H185.497C185.608 5.80131 185.767 5.56481 185.976 5.29634C186.185 5.02788 186.475 4.7935 186.846 4.59322C187.216 4.38867 187.706 4.2864 188.316 4.2864C189.108 4.2864 189.816 4.48668 190.438 4.88725C191.06 5.28782 191.548 5.86523 191.902 6.6195C192.26 7.37376 192.439 8.28143 192.439 9.34251C192.439 10.4036 192.262 11.3134 191.908 12.0719C191.554 12.8262 191.069 13.4078 190.451 13.8169C189.833 14.2218 189.127 14.4242 188.335 14.4242C187.738 14.4242 187.25 14.324 186.871 14.1238C186.496 13.9235 186.202 13.6891 185.989 13.4206C185.776 13.1522 185.612 12.9135 185.497 12.7047H185.337V14.2324H183.471ZM185.343 9.32333C185.343 10.0137 185.444 10.6188 185.644 11.1387C185.844 11.6586 186.134 12.0655 186.513 12.3596C186.892 12.6493 187.357 12.7942 187.907 12.7942C188.478 12.7942 188.955 12.6429 189.338 12.3404C189.722 12.0336 190.012 11.6181 190.208 11.0939C190.408 10.5698 190.508 9.97958 190.508 9.32333C190.508 8.6756 190.41 8.09393 190.214 7.5783C190.022 7.06268 189.733 6.65572 189.345 6.35742C188.961 6.05913 188.482 5.90998 187.907 5.90998C187.353 5.90998 186.884 6.05273 186.5 6.33825C186.121 6.62376 185.833 7.02219 185.637 7.53356C185.441 8.04492 185.343 8.64151 185.343 9.32333ZM197.082 14.4498C196.46 14.4498 195.897 14.3347 195.394 14.1046C194.892 13.8702 194.493 13.5314 194.199 13.0882C193.909 12.6451 193.764 12.1017 193.764 11.4583C193.764 10.9043 193.871 10.4483 194.084 10.0904C194.297 9.73242 194.585 9.44904 194.947 9.24023C195.309 9.03143 195.714 8.87376 196.161 8.76722C196.609 8.66069 197.065 8.57972 197.529 8.52432C198.117 8.45614 198.595 8.40075 198.961 8.35813C199.328 8.31126 199.594 8.23668 199.76 8.13441C199.926 8.03214 200.01 7.86594 200.01 7.63583V7.59109C200.01 7.03285 199.852 6.60032 199.536 6.2935C199.225 5.98668 198.761 5.83327 198.143 5.83327C197.5 5.83327 196.992 5.97603 196.622 6.26154C196.255 6.54279 196.002 6.856 195.861 7.20117L194.065 6.79208C194.278 6.19549 194.589 5.71396 194.998 5.34748C195.411 4.97674 195.887 4.70827 196.424 4.54208C196.96 4.37163 197.525 4.2864 198.117 4.2864C198.51 4.2864 198.925 4.33327 199.364 4.42702C199.807 4.51651 200.22 4.68271 200.604 4.9256C200.992 5.1685 201.309 5.5158 201.556 5.96751C201.804 6.41495 201.927 6.99663 201.927 7.71254V14.2324H200.061V12.8901H199.984C199.86 13.1373 199.675 13.3801 199.428 13.6188C199.181 13.8574 198.863 14.0556 198.475 14.2132C198.088 14.3709 197.623 14.4498 197.082 14.4498ZM197.497 12.9157C198.026 12.9157 198.478 12.8113 198.853 12.6025C199.232 12.3936 199.519 12.1209 199.715 11.7843C199.916 11.4434 200.016 11.079 200.016 10.6912V9.4256C199.948 9.49379 199.816 9.55771 199.62 9.61736C199.428 9.67276 199.208 9.72177 198.961 9.76438C198.714 9.80273 198.473 9.83896 198.239 9.87305C198.005 9.90288 197.809 9.92844 197.651 9.94975C197.28 9.99663 196.941 10.0755 196.635 10.1863C196.332 10.2971 196.089 10.4569 195.906 10.6657C195.727 10.8702 195.637 11.1429 195.637 11.4838C195.637 11.9569 195.812 12.3148 196.161 12.5577C196.511 12.7963 196.956 12.9157 197.497 12.9157ZM211.47 6.81126L209.738 7.11807C209.665 6.89648 209.55 6.68555 209.393 6.48526C209.239 6.28498 209.03 6.12092 208.766 5.99307C208.502 5.86523 208.172 5.80131 207.775 5.80131C207.234 5.80131 206.782 5.92276 206.42 6.16566C206.058 6.4043 205.877 6.71325 205.877 7.09251C205.877 7.42063 205.998 7.68484 206.241 7.88512C206.484 8.0854 206.876 8.24947 207.417 8.37731L208.977 8.73526C209.881 8.94407 210.554 9.2658 210.997 9.70046C211.44 10.1351 211.662 10.6998 211.662 11.3944C211.662 11.9824 211.491 12.5066 211.15 12.9668C210.814 13.4228 210.343 13.7807 209.738 14.0407C209.137 14.3006 208.44 14.4306 207.648 14.4306C206.548 14.4306 205.651 14.1962 204.957 13.7275C204.262 13.2544 203.836 12.5833 203.678 11.714L205.525 11.4327C205.64 11.9142 205.877 12.2786 206.235 12.5257C206.593 12.7686 207.059 12.8901 207.635 12.8901C208.261 12.8901 208.762 12.7601 209.137 12.5002C209.512 12.236 209.699 11.9142 209.699 11.535C209.699 11.2282 209.584 10.9703 209.354 10.7615C209.128 10.5527 208.781 10.3951 208.312 10.2885L206.65 9.92418C205.734 9.71538 205.057 9.38299 204.618 8.92702C204.183 8.47106 203.966 7.89364 203.966 7.19478C203.966 6.61523 204.128 6.10813 204.452 5.67347C204.775 5.23881 205.223 4.90004 205.794 4.65714C206.365 4.40998 207.019 4.2864 207.756 4.2864C208.817 4.2864 209.653 4.51651 210.262 4.97674C210.871 5.43271 211.274 6.04421 211.47 6.81126ZM217.635 14.4306C216.667 14.4306 215.834 14.2239 215.135 13.8105C214.441 13.3929 213.904 12.807 213.525 12.0527C213.15 11.2942 212.962 10.4057 212.962 9.38725C212.962 8.38157 213.15 7.49521 213.525 6.72816C213.904 5.96111 214.432 5.36239 215.11 4.932C215.792 4.5016 216.589 4.2864 217.5 4.2864C218.054 4.2864 218.591 4.37802 219.111 4.56126C219.631 4.7445 220.098 5.03214 220.511 5.42418C220.924 5.81623 221.25 6.32546 221.489 6.95188C221.728 7.57404 221.847 8.33043 221.847 9.22106V9.89862H214.042V8.4668H219.974C219.974 7.96396 219.872 7.51864 219.667 7.13086C219.463 6.73881 219.175 6.42986 218.804 6.20401C218.438 5.97816 218.008 5.86523 217.513 5.86523C216.976 5.86523 216.508 5.99734 216.107 6.26154C215.711 6.52148 215.404 6.86239 215.187 7.28427C214.973 7.70188 214.867 8.15572 214.867 8.64577V9.76438C214.867 10.4206 214.982 10.9789 215.212 11.4391C215.446 11.8993 215.772 12.2509 216.19 12.4938C216.608 12.7324 217.096 12.8517 217.654 12.8517C218.016 12.8517 218.346 12.8006 218.645 12.6983C218.943 12.5918 219.201 12.4341 219.418 12.2253C219.635 12.0165 219.802 11.7587 219.917 11.4519L221.726 11.7779C221.581 12.3105 221.321 12.7772 220.946 13.1777C220.575 13.574 220.108 13.883 219.546 14.1046C218.988 14.3219 218.351 14.4306 217.635 14.4306Z" fill="#78716C"/>
</svg>
